<?xml version="1.0" encoding="UTF-8" standalone="no"?>
<svg
   height="24"
   viewBox="0 0 24 24"
   width="24"
   version="1.1"
   id="svg763"
   sodipodi:docname="sdk-react-native.svg"
   inkscape:export-filename="sdk-react-native.svg"
   inkscape:export-xdpi="96"
   inkscape:export-ydpi="96"
   xmlns:inkscape="http://www.inkscape.org/namespaces/inkscape"
   xmlns:sodipodi="http://sodipodi.sourceforge.net/DTD/sodipodi-0.dtd"
   xmlns="http://www.w3.org/2000/svg"
   xmlns:svg="http://www.w3.org/2000/svg">
  <defs
     id="defs767" />
  <sodipodi:namedview
     id="namedview765"
     pagecolor="#ffffff"
     bordercolor="#000000"
     borderopacity="0.25"
     inkscape:showpageshadow="2"
     inkscape:pageopacity="0.0"
     inkscape:pagecheckerboard="0"
     inkscape:deskcolor="#d1d1d1"
     showgrid="false" />
  <path
     d="M 18.48,7 17.81,6.79 c 0,-0.15 0.07,-0.31 0.11,-0.46 0.5,-2.46 0.17,-4.44 -1,-5.09 -1.17,-0.65 -2.85,0 -4.65,1.59 C 12.1,2.98 11.92,3.14 11.76,3.3 L 11.46,3 C 9.58,1.29 7.7,0.58 6.57,1.24 5.44,1.9 5.16,3.73 5.57,6.06 Q 5.63,6.41 5.72,6.75 C 5.46,6.82 5.2,6.9 4.95,6.99 c -2.2,0.76 -3.78,2 -3.78,3.22 0,1.22 1.68,2.58 4,3.36 l 0.56,0.18 C 5.67,14 5.62,14.24 5.57,14.49 c -0.43,2.29 -0.1,4.11 1,4.73 1.1,0.62 3,0 4.81,-1.61 l 0.43,-0.4 c 0.18,0.18 0.37,0.34 0.56,0.51 1.77,1.52 3.52,2.13 4.6,1.51 1.08,-0.62 1.47,-2.6 1,-5 0,-0.19 -0.08,-0.37 -0.12,-0.56 l 0.39,-0.12 c 2.38,-0.79 4.1,-2.06 4.1,-3.37 C 22.34,8.87 20.73,7.74 18.48,7 Z M 12.9,3.47 c 1.53,-1.34 3,-1.87 3.62,-1.49 0.62,0.38 1,2 0.53,4.14 0,0.14 -0.06,0.28 -0.1,0.42 A 20.1,20.1 0 0 0 14.17,6.1 19.39,19.39 0 0 0 12.41,3.91 c 0.16,-0.16 0.32,-0.3 0.49,-0.44 z m -4.78,8.88 c 0.21,0.36 0.43,0.72 0.65,1.07 -0.64,-0.07 -1.28,-0.18 -1.91,-0.31 0.18,-0.6 0.41,-1.21 0.67,-1.84 0.19,0.36 0.38,0.72 0.59,1.08 z m -1.25,-5 C 7.46,7.22 8.1,7.11 8.75,7.03 q -0.33,0.51 -0.63,1 C 7.91,8.38 7.72,8.74 7.53,9.1 A 18,18 0 0 1 6.87,7.3 Z M 8,10.23 C 8.27,9.66 8.57,9.1 8.88,8.55 9.19,8 9.54,7.47 9.88,6.95 c 0.62,0 1.25,-0.07 1.9,-0.07 0.65,0 1.28,0 1.89,0.07 0.35,0.52 0.69,1 1,1.59 0.31,0.59 0.62,1.11 0.9,1.67 -0.28,0.57 -0.57,1.13 -0.89,1.68 -0.32,0.55 -0.68,1.11 -0.99,1.61 -0.62,0.05 -1.26,0.07 -1.9,0.07 -0.64,0 -1.28,0 -1.89,-0.06 C 9.54,12.99 9.21,12.45 8.9,11.9 8.59,11.35 8.28,10.8 8,10.23 Z m 7.46,2.11 c 0.21,-0.36 0.4,-0.73 0.6,-1.1 0.26,0.6 0.49,1.2 0.7,1.83 -0.64,0.14 -1.29,0.25 -1.94,0.33 0.22,-0.35 0.43,-0.7 0.64,-1.06 z M 16.05,9.18 Q 15.76,8.64 15.45,8.1 c -0.2,-0.35 -0.41,-0.7 -0.63,-1 a 17.87,17.87 0 0 1 1.9,0.33 18.27,18.27 0 0 1 -0.67,1.75 z M 11.79,4.54 A 15.82,15.82 0 0 1 13,6 Q 11.79,6 10.56,6 A 18.93,18.93 0 0 1 11.79,4.54 Z M 7,2 C 7.69,1.59 9.23,2.17 10.85,3.61 L 11.17,3.9 A 20.76,20.76 0 0 0 9.4,6.1 21.83,21.83 0 0 0 6.63,6.53 C 6.63,6.32 6.53,6.1 6.49,5.89 6.1,3.89 6.35,2.38 7,2 Z M 6,12.89 5.49,12.73 A 8.55,8.55 0 0 1 2.89,11.44 1.8,1.8 0 0 1 2.12,10.21 C 2.12,9.45 3.42,8.49 5.3,7.83 L 6,7.6 a 22,22 0 0 0 1,2.63 22.51,22.51 0 0 0 -1,2.66 z m 4.82,4.05 A 7.61,7.61 0 0 1 8.49,18.39 1.85,1.85 0 0 1 7,18.45 c -0.65,-0.38 -0.93,-1.84 -0.56,-3.8 0,-0.23 0.1,-0.46 0.16,-0.69 a 20.3,20.3 0 0 0 2.8,0.4 22.34,22.34 0 0 0 1.78,2.21 l -0.39,0.37 z m 1,-1 a 19.46,19.46 0 0 1 -1.25,-1.5 h 1.22 c 0,0 0.84,0 1.25,0 -0.38,0.56 -0.79,1.01 -1.22,1.49 z m 5.39,1.24 a 1.8,1.8 0 0 1 -0.68,1.29 c -0.65,0.38 -2.05,-0.11 -3.56,-1.41 L 12.44,16.59 A 19.54,19.54 0 0 0 14.18,14.37 19.21,19.21 0 0 0 17,13.93 c 0,0.17 0.08,0.34 0.11,0.5 a 7.42,7.42 0 0 1 0.1,2.74 z M 18,12.73 17.64,12.84 a 19.22,19.22 0 0 0 -1.05,-2.63 20.55,20.55 0 0 0 1,-2.6 l 0.62,0.19 c 1.93,0.66 3.28,1.65 3.28,2.4 0,0.75 -1.49,1.85 -3.49,2.53 z m -6.18,-0.62 a 1.89,1.89 0 1 0 -1.92,-1.89 1.89,1.89 0 0 0 1.89,1.89 z m -9.54,9.72 a 0.9,0.9 0 0 0 0.61,-0.9 0.94,0.94 0 0 0 -1,-1 H 0.6 v 3.16 h 0.49 v -1.18 h 0.69 l 0.64,1.21 H 3 Z M 1.79,21.49 h -0.7 v -1.1 h 0.69 a 0.54,0.54 0 0 1 0.61,0.55 0.53,0.53 0 0 1 -0.6,0.55 z m 3.39,0.56 v -0.16 c 0,-0.75 -0.4,-1.21 -1.07,-1.21 A 1.11,1.11 0 0 0 3,21.93 a 1.09,1.09 0 0 0 1.11,1.23 1,1 0 0 0 1,-0.69 H 4.7 A 0.58,0.58 0 0 1 4.13,22.76 0.63,0.63 0 0 1 3.49,22.08 Z m -1.07,-1 A 0.57,0.57 0 0 1 4.7,21.66 H 3.49 a 0.61,0.61 0 0 1 0.62,-0.57 z m 2.23,-0.41 c -0.54,0 -0.93,0.27 -1,0.68 H 5.8 c 0,-0.17 0.23,-0.27 0.5,-0.27 0.27,0 0.48,0.15 0.48,0.4 v 0.2 H 6.14 c -0.57,0 -0.89,0.28 -0.89,0.71 a 0.73,0.73 0 0 0 0.8,0.72 0.79,0.79 0 0 0 0.71,-0.38 v 0.34 H 7.21 V 21.49 C 7.27,21 6.93,20.68 6.34,20.68 Z M 6.8,22.2 a 0.56,0.56 0 0 1 -0.61,0.52 c -0.26,0 -0.45,-0.13 -0.45,-0.34 0,-0.21 0.15,-0.32 0.48,-0.34 H 6.8 Z M 9.17,21.47 A 0.54,0.54 0 0 0 8.6,21.07 c -0.39,0 -0.63,0.3 -0.63,0.81 0,0.51 0.24,0.82 0.63,0.82 a 0.52,0.52 0 0 0 0.57,-0.39 h 0.46 a 0.94,0.94 0 0 1 -1,0.81 1.09,1.09 0 0 1 -1.12,-1.24 1.09,1.09 0 0 1 1.09,-1.2 1,1 0 0 1 1,0.83 z M 10.5,20.1 v 0.6 H 11 v 0.4 h -0.5 v 1.23 c 0,0.24 0.1,0.35 0.34,0.35 H 11 v 0.39 a 1,1 0 0 1 -0.25,0 c -0.52,0 -0.73,-0.18 -0.73,-0.64 V 21.14 H 9.65 v -0.4 H 10 v -0.6 z m 1.68,3 V 20 h 0.44 l 1.62,2.24 V 20 h 0.47 v 3.16 h -0.44 l -1.62,-2.25 v 2.25 z m 3.91,-2.44 c -0.54,0 -0.93,0.27 -1,0.68 h 0.46 c 0,-0.17 0.23,-0.27 0.5,-0.27 0.27,0 0.48,0.15 0.48,0.4 v 0.2 h -0.64 c -0.57,0 -0.89,0.28 -0.89,0.71 a 0.73,0.73 0 0 0 0.8,0.72 0.79,0.79 0 0 0 0.71,-0.38 v 0.34 H 17 V 21.49 C 17,21 16.69,20.68 16.09,20.68 Z m 0.46,1.56 a 0.56,0.56 0 0 1 -0.61,0.52 c -0.26,0 -0.45,-0.13 -0.45,-0.34 0,-0.21 0.15,-0.32 0.48,-0.34 h 0.58 z M 18,20.14 v 0.6 h 0.52 v 0.4 H 18 v 1.23 c 0,0.24 0.11,0.35 0.34,0.35 h 0.18 v 0.39 a 1,1 0 0 1 -0.26,0 c -0.52,0 -0.73,-0.18 -0.73,-0.64 v -1.33 h -0.38 v -0.4 h 0.38 v -0.6 z m 0.68,-0.11 a 0.31,0.31 0 1 1 0.3,0.28 A 0.29,0.29 0 0 1 18.67,20 Z m 0.07,0.7 h 0.47 v 2.39 h -0.47 z m 2,2.39 h -0.5 l -0.86,-2.39 h 0.5 l 0.59,1.88 0.59,-1.88 h 0.5 z m 3,-1.07 v -0.16 a 1.06,1.06 0 0 0 -1.07,-1.21 1.11,1.11 0 0 0 -1.1,1.25 1.08,1.08 0 0 0 1.1,1.23 1,1 0 0 0 1,-0.69 h -0.46 a 0.55,0.55 0 0 1 -0.56,0.29 0.63,0.63 0 0 1 -0.64,-0.68 z m -1.07,-1 a 0.58,0.58 0 0 1 0.59,0.61 H 22 a 0.61,0.61 0 0 1 0.61,-0.57 z"
     fill="#080736"
     id="path761"
     style="fill:#53c1de;fill-opacity:1"
     inkscape:export-filename="../Desktop/neon uosss/src/Assets/react-native.svg"
     inkscape:export-xdpi="96"
     inkscape:export-ydpi="96" />
</svg>
