<svg xmlns="http://www.w3.org/2000/svg" version="1.1" width="512" height="512">
<path d="M0 0 C1.67276362 -0.00489552 3.34552387 -0.01108838 5.01827842 -0.01845789 C9.59162605 -0.03479693 14.16480062 -0.03255181 18.73816717 -0.02708292 C23.67972429 -0.02440522 28.62123605 -0.03895846 33.56277466 -0.05117798 C43.23548441 -0.07220367 52.90813419 -0.07677444 62.58086409 -0.07499009 C70.4466049 -0.07368091 78.31232705 -0.0774946 86.17806435 -0.08491516 C88.44643094 -0.08701443 90.71479753 -0.08911203 92.98316413 -0.09120798 C94.1123122 -0.09225151 95.24146027 -0.09329504 96.40482495 -0.09437019 C117.74728391 -0.11326137 139.08970848 -0.11222593 160.43217234 -0.10540086 C179.93669486 -0.09982749 199.44108595 -0.12064409 218.94557776 -0.15376133 C238.99243456 -0.18753414 259.03922846 -0.2026621 279.08611423 -0.1980443 C290.3329676 -0.19580309 301.57969954 -0.20099175 312.82652855 -0.22593689 C322.4027773 -0.2469965 331.97883803 -0.2504959 341.55509462 -0.2316373 C346.43614642 -0.22250783 351.31684808 -0.22125053 356.19787216 -0.24199295 C360.67589635 -0.26081142 365.15328633 -0.25607888 369.63128719 -0.23344713 C371.2415968 -0.22928861 372.85195609 -0.23336766 374.462213 -0.24704307 C394.89208349 -0.40857696 410.67041113 5.96644685 425.37153625 20.39440918 C426.01091125 21.00929199 426.65028625 21.6241748 427.30903625 22.25769043 C439.99628784 35.48301741 442.82994609 52.44102955 442.76594543 70.02287292 C442.77084096 71.69563655 442.77703381 73.36839679 442.78440332 75.04115134 C442.80074236 79.61449898 442.79849725 84.18767354 442.79302835 88.76104009 C442.79035066 93.70259722 442.80490389 98.64410898 442.81712341 103.58564758 C442.8381491 113.25835734 442.84271988 122.93100711 442.84093553 132.60373702 C442.83962634 140.46947783 442.84344003 148.33519997 442.8508606 156.20093727 C442.85295987 158.46930386 442.85505747 160.73767046 442.85715342 163.00603706 C442.85871871 164.69975916 442.85871871 164.69975916 442.86031562 166.42769787 C442.8792068 187.77015683 442.87817137 209.1125814 442.87134629 230.45504526 C442.86577293 249.95956778 442.88658952 269.46395887 442.91970676 288.96845069 C442.95347957 309.01530749 442.96860753 329.06210139 442.96398973 349.10898715 C442.96174852 360.35584053 442.96693719 371.60257246 442.99188232 382.84940147 C443.01294194 392.42565022 443.01644134 402.00171095 442.99758273 411.57796755 C442.98845326 416.45901934 442.98719596 421.33972101 443.00793839 426.22074509 C443.02675685 430.69876928 443.02202432 435.17615925 442.99939257 439.65416012 C442.99523405 441.26446973 442.99931309 442.87482902 443.01298851 444.48508593 C443.17452239 464.91495642 436.79949858 480.69328406 422.37153625 495.39440918 C421.75665344 496.03378418 421.14177063 496.67315918 420.508255 497.33190918 C407.28292802 510.01916076 390.32491589 512.85281901 372.74307251 512.78881836 C371.07030889 512.79371388 369.39754864 512.79990673 367.72479409 512.80727625 C363.15144646 512.82361528 358.57827189 512.82137017 354.00490534 512.81590128 C349.06334822 512.81322358 344.12183646 512.82777682 339.18029785 512.83999634 C329.5075881 512.86102203 319.83493832 512.8655928 310.16220842 512.86380845 C302.29646761 512.86249927 294.43074546 512.86631295 286.56500816 512.87373352 C284.29664157 512.87583279 282.02827497 512.87793039 279.75990838 512.88002634 C278.06618627 512.88159163 278.06618627 512.88159163 276.33824756 512.88318855 C254.9957886 512.90207973 233.65336403 512.90104429 212.31090017 512.89421922 C192.80637765 512.88864585 173.30198656 512.90946245 153.79749475 512.94257969 C133.75063795 512.9763525 113.70384405 512.99148046 93.65695828 512.98686266 C82.41010491 512.98462144 71.16337297 512.98981011 59.91654396 513.01475525 C50.34029521 513.03581486 40.76423448 513.03931426 31.18797789 513.02045566 C26.30692609 513.01132619 21.42622443 513.01006889 16.54520035 513.03081131 C12.06717616 513.04962978 7.58978618 513.04489724 3.11178531 513.02226549 C1.5014757 513.01810697 -0.10888358 513.02218602 -1.71914049 513.03586143 C-22.14901098 513.19739532 -37.92733862 506.82237151 -52.62846375 492.39440918 C-53.58752625 491.47208496 -53.58752625 491.47208496 -54.56596375 490.53112793 C-67.25321533 477.30580095 -70.08687358 460.34778881 -70.02287292 442.76594543 C-70.02776845 441.09318181 -70.0339613 439.42042157 -70.04133081 437.74766701 C-70.05766985 433.17431938 -70.05542474 428.60114481 -70.04995584 424.02777827 C-70.04727815 419.08622114 -70.06183139 414.14470938 -70.0740509 409.20317078 C-70.09507659 399.53046102 -70.09964737 389.85781125 -70.09786302 380.18508134 C-70.09655383 372.31934053 -70.10036752 364.45361839 -70.10778809 356.58788109 C-70.10988736 354.31951449 -70.11198496 352.0511479 -70.11408091 349.7827813 C-70.11512443 348.65363323 -70.11616796 347.52448516 -70.11724311 346.36112048 C-70.13613429 325.01866152 -70.13509886 303.67623695 -70.12827379 282.3337731 C-70.12270042 262.82925058 -70.14351701 243.32485949 -70.17663425 223.82036767 C-70.21040706 203.77351087 -70.22553502 183.72671697 -70.22091722 163.67983121 C-70.21867601 152.43297783 -70.22386468 141.18624589 -70.24880981 129.93941689 C-70.26986943 120.36316814 -70.27336883 110.78710741 -70.25451022 101.21085081 C-70.24538075 96.32979902 -70.24412345 91.44909735 -70.26486588 86.56807327 C-70.28368434 82.09004908 -70.27895181 77.6126591 -70.25632006 73.13465824 C-70.25216154 71.52434863 -70.25624058 69.91398934 -70.269916 68.30373243 C-70.43144988 47.87386194 -64.05642607 32.0955343 -49.62846375 17.39440918 C-49.01358093 16.75503418 -48.39869812 16.11565918 -47.7651825 15.45690918 C-34.53985551 2.7696576 -17.58184338 -0.06400065 0 0 Z M-31.62846375 43.39440918 C-40.24962118 54.67830385 -39.77743855 67.21967823 -39.76217651 80.78462219 C-39.76404617 82.35936131 -39.76634749 83.93409996 -39.76904184 85.50883788 C-39.77514704 89.82493285 -39.77502775 94.14100841 -39.77384746 98.45710671 C-39.77364313 103.11639142 -39.77916526 107.77566996 -39.78390503 112.43495178 C-39.79220497 121.55893872 -39.79495957 130.6829192 -39.79551741 139.8069096 C-39.79599285 147.22415066 -39.79804901 154.6413896 -39.80121803 162.05862999 C-39.81002257 183.09457944 -39.81463769 204.13052379 -39.81388756 225.16647509 C-39.8138476 226.30009422 -39.81380765 227.43371335 -39.81376648 228.60168457 C-39.8137256 229.73668999 -39.81368472 230.8716954 -39.8136426 232.04109492 C-39.81323612 250.43689819 -39.82280674 268.832681 -39.83690485 287.22847835 C-39.8512713 306.12372354 -39.85817489 325.01895875 -39.85731107 343.91420954 C-39.85697921 354.51983453 -39.85972159 365.12543806 -39.87048912 375.73105812 C-39.87959762 384.76033489 -39.88176646 393.78958047 -39.8749797 402.81885985 C-39.87171636 407.42373095 -39.87165112 412.0285422 -39.88033295 416.63340759 C-39.88820697 420.85328164 -39.8867573 425.07304849 -39.87804881 429.29291996 C-39.87651583 430.81507422 -39.87832237 432.33723651 -39.88390889 433.8593813 C-39.93510778 448.80575513 -38.98252323 461.20403707 -28.554245 472.57019043 C-17.43834741 483.09985406 -3.60009958 482.54428059 10.76174927 482.52812195 C12.33648838 482.52999161 13.91122703 482.53229293 15.48596495 482.53498727 C19.80205992 482.54109247 24.11813548 482.54097319 28.43423378 482.5397929 C33.0935185 482.53958857 37.75279703 482.54511069 42.41207886 482.54985046 C51.5360658 482.5581504 60.66004627 482.560905 69.78403667 482.56146284 C77.20127774 482.56193828 84.61851667 482.56399444 92.03575706 482.56716347 C113.07170651 482.57596801 134.10765086 482.58058312 155.14360217 482.57983299 C156.2772213 482.57979304 157.41084042 482.57975308 158.57881165 482.57971191 C159.71381706 482.57967103 160.84882248 482.57963015 162.018222 482.57958803 C180.41402527 482.57918155 198.80980807 482.58875218 217.20560542 482.60285028 C236.10085062 482.61721674 254.99608583 482.62412033 273.89133662 482.6232565 C284.49696161 482.62292464 295.10256513 482.62566703 305.7081852 482.63643456 C314.73746197 482.64554306 323.76670755 482.64771189 332.79598693 482.64092513 C337.40085802 482.6376618 342.00566928 482.63759656 346.61053467 482.64627838 C350.83040872 482.65415241 355.05017557 482.65270273 359.27004703 482.64399425 C360.79220129 482.64246126 362.31436359 482.6442678 363.83650837 482.64985432 C378.78288221 482.70105322 391.18116414 481.74846866 402.5473175 471.32019043 C413.07698114 460.20429285 412.52140767 446.36604501 412.50524902 432.00419617 C412.50711868 430.42945705 412.50942 428.8547184 412.51211435 427.27998048 C412.51821955 422.96388551 412.51810026 418.64780995 412.51691997 414.33171165 C412.51671564 409.67242693 412.52223777 405.0131484 412.52697754 400.35386658 C412.53527748 391.22987964 412.53803208 382.10589916 412.53858992 372.98190876 C412.53906536 365.5646677 412.54112152 358.14742876 412.54429054 350.73018837 C412.55309508 329.69423892 412.5577102 308.65829457 412.55696007 287.62234326 C412.55692011 286.48872414 412.55688016 285.35510501 412.55683899 284.18713379 C412.55679811 283.05212837 412.55675723 281.91712296 412.55671511 280.74772344 C412.55630863 262.35192017 412.56587925 243.95613736 412.57997736 225.56034001 C412.59434381 206.66509482 412.6012474 187.76985961 412.60038358 168.87460881 C412.60005172 158.26898383 412.6027941 147.6633803 412.61356163 137.05776024 C412.62267013 128.02848347 412.62483897 118.99923789 412.61805221 109.96995851 C412.61478887 105.36508741 412.61472363 100.76027616 412.62340546 96.15541077 C412.63127948 91.93553672 412.62982981 87.71576987 412.62112132 83.4958984 C412.61958834 81.97374414 412.62139488 80.45158185 412.6269814 78.92943706 C412.68005287 63.43640647 411.51821268 51.11092457 400.633255 39.44128418 C389.84782332 29.68037537 375.31698679 30.09654532 361.62055969 30.14044189 C360.0432305 30.13813396 358.46590239 30.13495521 356.88857651 30.13098741 C352.57923532 30.12267646 348.26998327 30.12674777 343.96064186 30.13295984 C339.30345191 30.13749853 334.64627692 30.13049356 329.98908997 30.125 C320.87553112 30.11611947 311.76200526 30.11802204 302.64844513 30.12382528 C295.23985524 30.12834704 287.83127459 30.12895245 280.42268372 30.12677765 C279.36716206 30.12647118 278.31164041 30.12616472 277.22413325 30.12584896 C275.07967917 30.1252095 272.93522509 30.12456107 270.79077101 30.12390378 C250.69506461 30.11820441 230.59937648 30.12475221 210.50367308 30.13550451 C193.27081624 30.14443966 176.03798635 30.14288751 158.80513 30.13366699 C138.77999045 30.12295742 118.7548669 30.1187537 98.72972488 30.12489152 C96.59327952 30.1255286 94.45683416 30.12615734 92.32038879 30.12677765 C90.74374266 30.12724048 90.74374266 30.12724048 89.13524508 30.12771265 C81.73788998 30.12943753 74.34054505 30.12652895 66.94319153 30.12181854 C57.92496342 30.11620209 48.90677012 30.11774225 39.88854599 30.12838003 C35.28973221 30.13362643 30.6909764 30.13571108 26.09216309 30.12908173 C21.87795612 30.12309879 17.66386058 30.1264359 13.44966364 30.13703683 C11.92961947 30.13926094 10.40956579 30.13815692 8.8895278 30.13328525 C-7.064145 30.0860981 -20.20816163 31.33828725 -31.62846375 43.39440918 Z " fill="#000000" transform="translate(69.62846374511719,-0.3944091796875)"/>
<path d="M0 0 C10.23 0 20.46 0 31 0 C31 18.15 31 36.3 31 55 C43.54 55 56.08 55 69 55 C69 36.85 69 18.7 69 0 C79.23 0 89.46 0 100 0 C100 47.85 100 95.7 100 145 C89.77 145 79.54 145 69 145 C69 125.53 69 106.06 69 86 C56.46 86 43.92 86 31 86 C31 105.47 31 124.94 31 145 C20.77 145 10.54 145 0 145 C0 97.15 0 49.3 0 0 Z " fill="#000000" transform="translate(325,286)"/>
<path d="M0 0 C-2.14352067 5.82576203 -5.51944884 10.66641489 -8.9375 15.8125 C-9.57107422 16.79154297 -10.20464844 17.77058594 -10.85742188 18.77929688 C-11.47037109 19.70419922 -12.08332031 20.62910156 -12.71484375 21.58203125 C-13.27292725 22.42999268 -13.83101074 23.2779541 -14.40600586 24.15161133 C-15.19503296 25.06656372 -15.19503296 25.06656372 -16 26 C-19.52686144 26 -21.26905204 25.01479584 -24.4375 23.5 C-31.43430394 20.53037705 -38.14378998 19.36606392 -45.49609375 21.83984375 C-49.44173639 23.651242 -49.44173639 23.651242 -52 27 C-52.14375422 30.37822416 -52.07536348 32.77390955 -51 36 C-48.6844201 37.14752577 -48.6844201 37.14752577 -46 38 C-44.93265625 38.42539062 -44.93265625 38.42539062 -43.84375 38.859375 C-38.39270027 40.9307739 -32.90542848 42.59663773 -27.28149414 44.1184082 C-18.57035275 46.48791818 -10.54641518 48.85600164 -3 54 C-2.12214844 54.58007812 -2.12214844 54.58007812 -1.2265625 55.171875 C7.27896969 61.47546738 12.31891971 72.78664427 14 83 C15.27491289 96.04173182 10.99905004 107.767129 3 118 C-5.95263706 128.03546142 -19.59531007 133.39221561 -32.80859375 134.1640625 C-50.52407239 134.64110109 -65.98437698 129.71484224 -80 119 C-81.12921875 118.15308594 -81.12921875 118.15308594 -82.28125 117.2890625 C-82.8484375 116.86367188 -83.415625 116.43828125 -84 116 C-83.48751744 111.86217786 -81.32569018 110.04914415 -78.375 107.25 C-74.52234202 103.52943315 -70.95416825 99.74279926 -67.5703125 95.59375 C-65.85125466 93.84903458 -64.23542277 92.96771549 -62 92 C-61.57332031 92.38671875 -61.14664063 92.7734375 -60.70703125 93.171875 C-53.33020921 99.31669171 -43.74903921 102.8676059 -34.05859375 102.31640625 C-28.90978985 101.52503411 -24.67961127 100.12621666 -21.0625 96.25 C-18.73579797 92.58368166 -18 90.33368628 -18 86 C-19.58771624 81.44854677 -22.35113914 80.05491391 -26.56762695 78.01489258 C-31.11510983 76.11748353 -35.87274113 74.95823957 -40.625 73.6875 C-55.429679 69.52484267 -69.82241875 64.39677841 -78.875 51.125 C-84.35493251 41.34076064 -85.56412659 30.73684047 -83.34375 19.75390625 C-80.14721446 8.93804246 -73.5586301 0.92075393 -64 -5 C-41.76645169 -15.93267471 -20.95462199 -11.19529931 0 0 Z " fill="#000000" transform="translate(170,297)"/>
<path d="M0 0 C-1.25310226 4.21106896 -2.79262238 7.54913478 -5.2578125 11.1796875 C-5.88300781 12.1078125 -6.50820313 13.0359375 -7.15234375 13.9921875 C-7.80332031 14.94351562 -8.45429688 15.89484375 -9.125 16.875 C-9.78371094 17.84953125 -10.44242187 18.8240625 -11.12109375 19.828125 C-12.74119585 22.22305854 -14.36761748 24.61342751 -16 27 C-16.94359375 26.566875 -17.8871875 26.13375 -18.859375 25.6875 C-28.15247024 21.59007324 -36.50352218 18.7205341 -46.5625 22.25 C-49.08273286 24.05939795 -50.64144685 25.20297881 -52 28 C-52.15811388 31.05270463 -52.15811388 31.05270463 -51 34 C-47.03066335 37.89344111 -42.86748046 39.33556973 -37.6875 40.9375 C-36.90004395 41.19128418 -36.11258789 41.44506836 -35.30126953 41.70654297 C-31.39299032 42.95972843 -27.47057839 44.16445952 -23.54296875 45.35546875 C-9.20361605 49.70724553 2.22114164 54.6100204 9.78125 68.44921875 C14.9101391 79.18372061 15.86792503 90.82353343 12.4375 102.3125 C7.74870093 114.52632975 -0.71242513 123.67090952 -12.4375 129.375 C-28.97298527 136.42605282 -46.6059729 135.27411412 -63.25 128.75 C-70.92745852 125.31589355 -78.19314929 121.14289531 -84 115 C-82.48623919 111.43235715 -80.39486871 109.16293713 -77.6484375 106.453125 C-76.79765625 105.60878906 -75.946875 104.76445312 -75.0703125 103.89453125 C-74.18085938 103.02183594 -73.29140625 102.14914062 -72.375 101.25 C-71.4778125 100.36183594 -70.580625 99.47367187 -69.65625 98.55859375 C-67.44192996 96.36783031 -65.22307565 94.18187237 -63 92 C-62.09378906 92.55429687 -61.18757813 93.10859375 -60.25390625 93.6796875 C-50.7335342 99.46214522 -50.7335342 99.46214522 -40 102 C-39.26394531 102.07992187 -38.52789062 102.15984375 -37.76953125 102.2421875 C-31.85401749 102.58836214 -26.9865283 101.22129728 -22 98 C-18.96453225 94.66838906 -18.08836886 92.85423236 -17.625 88.375 C-17.97872624 85.19146383 -18.31825285 83.64298601 -20 81 C-26.09124675 77.00493128 -33.87106913 75.50896192 -40.8125 73.625 C-56.79362511 69.08768799 -70.70909323 63.21376458 -79.81640625 48.37890625 C-84.65729624 38.64919666 -85.25980485 28.95163205 -82.5 18.5625 C-78.81300481 7.61753876 -72.17907641 -0.5143597 -62 -6 C-40.76831478 -15.22013422 -19.43369413 -11.98136651 0 0 Z " fill="#000000" transform="translate(287,297)"/>
<path d="M0 0 C8.7085909 4.24631788 17.17611246 8.71708015 25.5 13.6875 C33.26007463 18.27033653 41.06462535 22.72788102 49 27 C57.91458734 31.80525483 66.67643569 36.84009801 75.40820312 41.96923828 C83.54869337 46.75009716 91.74880121 51.4133042 100 56 C101.49778175 65.23440055 102.76549001 74.913011 100 84 C94.97284389 90.43573125 86.8585502 93.29204746 79.54199219 96.41943359 C73.57537128 99.08195798 67.98138891 102.38824468 62.3125 105.625 C60.03043556 106.8912517 57.7466032 108.15432293 55.4609375 109.4140625 C49.7630786 112.569103 44.09043039 115.76521896 38.4375 119 C37.62087891 119.46712402 36.80425781 119.93424805 35.96289062 120.41552734 C31.57029644 122.93470907 27.18750704 125.47024535 22.81181335 128.01867676 C20.40479595 129.4201244 17.99610222 130.81867915 15.58743286 132.21728516 C13.84008077 133.2339526 12.09567389 134.25554605 10.35131836 135.27734375 C9.29307861 135.89222656 8.23483887 136.50710937 7.14453125 137.140625 C6.19940674 137.69266602 5.25428223 138.24470703 4.28051758 138.81347656 C2 140 2 140 0 140 C0 128.12 0 116.24 0 104 C3.5475 102.02 7.095 100.04 10.75 98 C20.61088967 92.48540752 30.44121715 86.91918396 40.25 81.3125 C40.85404663 80.96743408 41.45809326 80.62236816 42.08044434 80.2668457 C48.95928545 76.36839425 48.95928545 76.36839425 55.73339844 72.29370117 C58 71 58 71 60 71 C60 70.34 60 69.68 60 69 C58.80697266 68.66935547 58.80697266 68.66935547 57.58984375 68.33203125 C52.92824363 66.60231891 48.84386313 64.19633956 44.5625 61.6875 C42.69309439 60.6048019 40.82328769 59.5227961 38.953125 58.44140625 C37.98181641 57.87824707 37.01050781 57.31508789 36.00976562 56.73486328 C30.03143385 53.28888457 24.00933864 49.91977955 17.99243164 46.54174805 C16.19725494 45.5304421 14.41284285 44.49975045 12.640625 43.44873047 C10.02223311 41.92915071 10.02223311 41.92915071 7.125 40.93017578 C3.97788488 39.60311256 2.19497214 38.63804866 0 36 C-1.25455778 29.83713649 -0.94321517 23.87522626 -0.625 17.625 C-0.57480654 15.91809836 -0.52918477 14.21105577 -0.48828125 12.50390625 C-0.37838489 8.33244748 -0.20607411 4.16776967 0 0 Z " fill="#000000" transform="translate(126,83)"/>
<path d="M0 0 C53.13 0 106.26 0 161 0 C161 10.23 161 20.46 161 31 C107.87 31 54.74 31 0 31 C0 20.77 0 10.54 0 0 Z " fill="#000000" transform="translate(225,192)"/>
</svg>