<?xml version="1.0" encoding="UTF-8" standalone="no"?>
<!-- Created with Inkscape (http://www.inkscape.org/) -->

<svg
   width="130mm"
   height="72.81636mm"
   viewBox="0 0 130 72.81636"
   version="1.1"
   id="svg5"
   xml:space="preserve"
   xmlns="http://www.w3.org/2000/svg"
   xmlns:svg="http://www.w3.org/2000/svg"><defs
     id="defs2"><style
       id="style9">.cls-1{fill:#8d8d93;}.cls-2{fill:#4a4a55;}.cls-3{fill:#ff3e00;}.cls-4{fill:#fff;}</style></defs><g
     id="layer1"
     transform="translate(0,-81.484998)"><g
       id="horizontal"
       transform="matrix(0.26458333,0,0,0.26458333,-0.09077747,127.97981)"><path
         id="kit"
         class="cls-1"
         d="m 391.61074,98.467784 -16.55228,-30.753017 -10.42024,12.60431 v 18.148707 h -8.73808 v -58.81814 h 8.73808 V 68.134812 L 387.3255,39.649644 h 10.08303 l -16.4665,20.67095 20.92132,38.14719 z m 29.15557,0 v -58.81814 h 8.73808 v 58.81814 z m 54.27928,-50.415267 v 50.415267 h -8.73907 V 48.052517 h -16.6361 v -8.402873 h 42.01126 v 8.402873 z"
         style="stroke-width:0.986019" /><path
         id="svelte-2"
         data-name="svelte"
         class="cls-2"
         d="M 21.769263,99.475498 A 23.739365,23.739448 0 0 1 8.2420847,95.652693 19.598091,19.598159 0 0 1 0.34309595,85.191994 L 8.5773308,82.166881 a 15.194534,15.194588 0 0 0 5.3787272,6.50774 14.165132,14.165181 0 0 0 8.150423,2.395046 11.967299,11.96734 0 0 0 7.771792,-2.352647 8.1612695,8.161298 0 0 0 2.898893,-6.721707 A 7.3566789,7.3567046 0 0 0 31.978492,78.591568 10.169788,10.169823 0 0 0 30.172107,76.027912 12.169432,12.169474 0 0 0 27.063192,73.9691 Q 24.961003,72.920959 23.575648,72.372731 22.190293,71.824504 19.500436,70.902574 16.140087,69.72625 14.459913,69.05477 A 37.953797,37.95393 0 0 1 10.04847,66.827348 16.290986,16.291043 0 0 1 5.9308589,63.718423 15.063395,15.063447 0 0 1 3.4529961,59.643197 14.559539,14.55959 0 0 1 7.3970674,43.090858 Q 12.438576,38.637986 21.091868,38.637 q 7.226526,0 11.890389,3.192737 a 15.439067,15.439121 0 0 1 6.259242,8.487671 l -8.065626,2.687894 a 9.3878756,9.3879084 0 0 0 -3.907588,-4.326661 13.119953,13.119999 0 0 0 -6.847894,-1.639754 10.556307,10.556344 0 0 0 -6.59646,1.84879 6.202052,6.2020737 0 0 0 -2.39405,5.210136 5.4339441,5.4339632 0 0 0 1.847797,4.032827 12.689063,12.689108 0 0 0 3.865189,2.605068 q 2.019365,0.840091 6.135004,2.267849 2.518289,0.925874 3.737992,1.386346 1.219705,0.460472 3.571358,1.55397 a 24.749047,24.749134 0 0 1 3.612769,1.972042 31.617647,31.617758 0 0 1 2.941291,2.395046 12.528343,12.528386 0 0 1 2.563646,3.066526 17.099521,17.099581 0 0 1 1.511565,3.780406 17.334194,17.334254 0 0 1 0.631052,4.748678 q 0,8.23525 -5.630162,12.897158 -5.630161,4.661909 -14.448119,4.671769 z M 75.628514,98.467784 55.462478,39.649644 h 9.41154 l 13.359555,41.00468 a 63.885081,63.885304 0 0 1 1.848783,6.722693 62.936531,62.936751 0 0 1 1.848784,-6.722693 l 13.190946,-41.00468 h 9.326744 l -20.082226,58.81814 z m 46.632726,0 v -58.81814 h 36.46688 v 8.235249 h -27.72781 v 16.132294 h 17.89722 v 8.23525 h -17.89722 v 17.980098 h 29.58054 v 8.235249 z m 60.58094,0 v -58.81814 h 8.74006 v 50.415267 h 28.73552 v 8.402873 z m 70.41153,-50.415267 v 50.415267 h -8.73908 V 48.052517 h -16.63609 v -8.402873 h 42.01225 v 8.402873 z m 34.69895,50.415267 v -58.81814 h 36.46689 v 8.235249 H 296.6947 v 16.132294 h 17.89622 v 8.23525 H 296.6947 v 17.980098 h 29.58053 v 8.235249 z"
         style="stroke-width:0.986019" /><g
         id="logo"
         transform="matrix(1.6222317,0,0,1.6222317,133.05917,-197.62661)"><path
           id="orange"
           class="cls-3"
           d="M 110.286,28.319 C 99.886,13.434 79.345,9.019 64.494,18.484 L 38.412,35.108 A 29.921,29.921 0 0 0 24.893,55.151 31.514,31.514 0 0 0 28,75.382 a 29.987,29.987 0 0 0 -4.476,11.183 31.888,31.888 0 0 0 5.447,24.116 c 10.4,14.887 30.942,19.3 45.791,9.835 l 26.083,-16.624 a 29.92,29.92 0 0 0 13.519,-20.043 31.529,31.529 0 0 0 -3.106,-20.232 30,30 0 0 0 4.474,-11.182 31.878,31.878 0 0 0 -5.447,-24.116" /><path
           id="white"
           class="cls-4"
           d="m 61.946,112.082 a 20.72,20.72 0 0 1 -22.237,-8.243 19.176,19.176 0 0 1 -3.276,-14.5 18.143,18.143 0 0 1 0.623,-2.435 l 0.491,-1.5 1.337,0.981 a 33.633,33.633 0 0 0 10.2,5.1 l 0.969,0.294 -0.089,0.968 a 5.844,5.844 0 0 0 1.052,3.878 6.24,6.24 0 0 0 6.7,2.485 5.748,5.748 0 0 0 1.6,-0.7 L 85.4,81.781 a 5.43,5.43 0 0 0 2.45,-3.631 5.794,5.794 0 0 0 -0.988,-4.371 6.244,6.244 0 0 0 -6.7,-2.487 5.737,5.737 0 0 0 -1.6,0.7 l -9.954,6.345 a 19.047,19.047 0 0 1 -5.3,2.326 A 20.72,20.72 0 0 1 41.071,72.42 19.171,19.171 0 0 1 37.794,57.92 17.992,17.992 0 0 1 45.932,45.87 L 72.013,29.247 a 19.011,19.011 0 0 1 5.3,-2.329 20.719,20.719 0 0 1 22.237,8.243 19.176,19.176 0 0 1 3.277,14.5 18.453,18.453 0 0 1 -0.627,2.439 l -0.491,1.5 -1.336,-0.979 a 33.616,33.616 0 0 0 -10.2,-5.1 l -0.97,-0.294 0.09,-0.968 a 5.859,5.859 0 0 0 -1.052,-3.878 6.24,6.24 0 0 0 -6.695,-2.485 5.742,5.742 0 0 0 -1.6,0.7 L 53.859,57.219 a 5.425,5.425 0 0 0 -2.449,3.63 5.79,5.79 0 0 0 0.986,4.372 6.245,6.245 0 0 0 6.7,2.487 5.773,5.773 0 0 0 1.6,-0.7 l 9.952,-6.342 a 18.978,18.978 0 0 1 5.3,-2.328 20.718,20.718 0 0 1 22.232,8.238 19.171,19.171 0 0 1 3.277,14.5 18,18 0 0 1 -8.13,12.054 l -26.081,16.623 a 19,19 0 0 1 -5.3,2.329" /></g></g></g></svg>
