<?xml version="1.0" encoding="UTF-8" standalone="no"?>
<!-- Created with Inkscape (http://www.inkscape.org/) -->

<svg
   width="155.18594mm"
   height="155.03729mm"
   viewBox="0 0 155.18594 155.03729"
   version="1.1"
   id="svg2094"
   xml:space="preserve"
   xmlns:inkscape="http://www.inkscape.org/namespaces/inkscape"
   xmlns:sodipodi="http://sodipodi.sourceforge.net/DTD/sodipodi-0.dtd"
   xmlns="http://www.w3.org/2000/svg"
   xmlns:svg="http://www.w3.org/2000/svg"><sodipodi:namedview
     id="namedview2096"
     pagecolor="#ffffff"
     bordercolor="#000000"
     borderopacity="0.25"
     inkscape:showpageshadow="2"
     inkscape:pageopacity="0.0"
     inkscape:pagecheckerboard="0"
     inkscape:deskcolor="#d1d1d1"
     inkscape:document-units="mm"
     showgrid="false" /><defs
     id="defs2091"><linearGradient
       id="b"
       gradientUnits="userSpaceOnUse"
       x1="173948"
       y1="-2539.76"
       x2="125024"
       y2="274914"><stop
         offset="0.20986988"
         stop-color="#e5a235"
         id="stop2168"
         style="stop-color:#00d4ff;stop-opacity:1;" /><stop
         offset="1"
         stop-color="#d23629"
         id="stop2170"
         style="stop-color:#0525d3;stop-opacity:1;" /></linearGradient><linearGradient
       id="a"
       gradientUnits="userSpaceOnUse"
       x1="196383"
       y1="-1115.35"
       x2="137302"
       y2="333952"
       spreadMethod="pad"><stop
         offset="0"
         stop-color="#f9b13d"
         id="stop2173"
         style="stop-color:#00d4ff;stop-opacity:1;" /><stop
         offset="1"
         stop-color="#e63830"
         id="stop2175"
         style="stop-color:#006dfd;stop-opacity:1;" /></linearGradient></defs><g
     inkscape:label="Layer 1"
     inkscape:groupmode="layer"
     id="layer1"><g
       style="clip-rule:evenodd;fill-rule:evenodd;image-rendering:optimizeQuality;shape-rendering:geometricPrecision;text-rendering:geometricPrecision"
       id="g2202"
       transform="matrix(4.6555687e-4,0,0,4.6555687e-4,0,-4.6555687e-4)"><g
         fill-rule="nonzero"
         id="g2186"><path
           d="m 73350,243 h 186101 c 41094,-298 73883,32298 73883,73585 v 185770 c 0,40626 -32789,73763 -73883,73415 H 73350 C 33632,333013 351,300224 351,259598 V 73828 C 351,32541 33632,-523 73350,243 Z"
           fill="url(#a)"
           id="path2180"
           style="fill:url(#a)" /><path
           d="m 281382,272374 c 0,0 -12972,-21008 -34183,-21008 -21660,0 -32351,21008 -75206,21008 -92987,0 -137068,-76506 -138071,-78316 0,519 519,519 519,519 L 0,158396 V 73558 C 0,32462 33572,1 73099,1 h 66538 l 48550,49735 c 52,0 52,-519 532,-1015 110252,76190 74705,158613 74705,158613 0,0 30525,34574 17958,65042 z"
           fill="url(#b)"
           id="path2182"
           style="fill:url(#b)" /><path
           d="m 189263,49490 c 109868,74795 74378,157625 74378,157625 0,0 30534,34878 18035,65459 0,0 -12991,-21231 -34161,-21231 -21219,0 -33928,21231 -75302,21231 -94193,0 -137215,-78533 -137215,-78533 83546,56856 141921,16544 141921,16544 C 138636,188424 57167,83892 57167,83892 127559,142993 157491,158646 157491,158646 139801,144580 89415,71548 89415,71548 130461,112311 210958,170076 210958,170076 233121,106000 189264,49490 189264,49490 Z"
           fill="#fefefe"
           id="path2184"
           style="fill:#000000;fill-opacity:1" /></g></g></g></svg>
